<?xml version="1.0" encoding="UTF-8" standalone="no"?>
<svg
   id="Discord-Logo"
   viewBox="0 0 512.00001 512"
   version="1.1"
   sodipodi:docname="discord.svg"
   width="512"
   height="512"
   inkscape:version="1.4.2 (ebf0e940d0, 2025-05-08)"
   xmlns:inkscape="http://www.inkscape.org/namespaces/inkscape"
   xmlns:sodipodi="http://sodipodi.sourceforge.net/DTD/sodipodi-0.dtd"
   xmlns="http://www.w3.org/2000/svg"
   xmlns:svg="http://www.w3.org/2000/svg">
  <defs
     id="defs1" />
  <sodipodi:namedview
     id="namedview1"
     pagecolor="#ffffff"
     bordercolor="#000000"
     borderopacity="0.25"
     inkscape:showpageshadow="2"
     inkscape:pageopacity="0.0"
     inkscape:pagecheckerboard="0"
     inkscape:deskcolor="#d1d1d1"
     inkscape:zoom="1.4142136"
     inkscape:cx="269.40768"
     inkscape:cy="290.97444"
     inkscape:window-width="2542"
     inkscape:window-height="1382"
     inkscape:window-x="0"
     inkscape:window-y="0"
     inkscape:window-maximized="1"
     inkscape:current-layer="Discord-Logo" />
  <path
     id="Discord-Symbol-Black"
     d="m 328.07566,61.944 c -5.00341,8.883318 -9.49621,18.073082 -13.58027,27.46701 -38.80106,-5.820063 -78.31689,-5.820063 -117.21983,0 C 193.29337,80.017082 188.69829,70.827318 183.69529,61.944 147.24271,68.172793 111.70907,79.098146 78.013702,94.516299 11.235049,193.45899 -6.8380167,289.84863 2.1475767,384.911 41.254677,413.80756 85.059141,435.86283 131.72229,449.95372 c 10.51702,-14.09089 19.80906,-29.10072 27.77343,-44.72304 -15.1121,-5.6159 -29.71358,-12.66134 -43.70218,-20.82989 3.67574,-2.65492 7.2496,-5.41173 10.72118,-8.06667 81.99263,38.59694 176.95304,38.59694 259.04755,0 3.47158,2.8591 7.04544,5.61591 10.72118,8.06667 -13.9886,8.27043 -28.59008,15.21399 -43.80406,20.93218 7.96437,15.62231 17.25601,30.63214 27.77343,44.72303 46.66194,-14.09089 90.466,-36.04428 129.57633,-64.94044 C 520.44562,274.83879 491.65259,179.26582 433.75523,94.618583 400.16376,79.20043 364.63011,68.274673 328.17754,62.148163 Z M 170.93167,326.40352 c -25.22038,0 -46.15254,-22.87233 -46.15254,-51.156 0,-28.28365 20.1151,-51.25827 46.05067,-51.25827 25.93556,0 46.56086,23.0765 46.15253,51.25827 -0.40832,28.18179 -20.31926,51.156 -46.05066,51.156 z m 170.11177,0 c -25.32308,0 -46.05066,-22.87233 -46.05066,-51.156 0,-28.28365 20.1151,-51.25827 46.05066,-51.25827 25.93556,0 46.45898,23.0765 46.05025,51.25827 -0.40832,28.18179 -20.31926,51.156 -46.05025,51.156 z"
     style="fill:#000000;stroke-width:4.04283" />
</svg>
