<?xml version="1.0" encoding="UTF-8" standalone="no"?>
<svg
   viewBox="0 0 512 512"
   version="1.1"
   id="svg2"
   sodipodi:docname="email.svg"
   width="512"
   height="512"
   inkscape:version="1.4.2 (ebf0e940d0, 2025-05-08)"
   xmlns:inkscape="http://www.inkscape.org/namespaces/inkscape"
   xmlns:sodipodi="http://sodipodi.sourceforge.net/DTD/sodipodi-0.dtd"
   xmlns="http://www.w3.org/2000/svg"
   xmlns:svg="http://www.w3.org/2000/svg"
   xmlns:rdf="http://www.w3.org/1999/02/22-rdf-syntax-ns#"
   xmlns:cc="http://creativecommons.org/ns#"
   xmlns:dc="http://purl.org/dc/elements/1.1/">
  <defs
     id="defs2" />
  <sodipodi:namedview
     id="namedview2"
     pagecolor="#ffffff"
     bordercolor="#000000"
     borderopacity="0.25"
     inkscape:showpageshadow="2"
     inkscape:pageopacity="0.0"
     inkscape:pagecheckerboard="0"
     inkscape:deskcolor="#d1d1d1"
     inkscape:zoom="1.125"
     inkscape:cx="-82.666666"
     inkscape:cy="180.88889"
     inkscape:window-width="2542"
     inkscape:window-height="1382"
     inkscape:window-x="0"
     inkscape:window-y="0"
     inkscape:window-maximized="1"
     inkscape:current-layer="svg2" />
  <title
     id="title1">27-Email-Message</title>
  <g
     id="_27-Email-Message"
     data-name="27-Email-Message"
     transform="matrix(15.999997,0,0,15.999997,5.047786e-5,0.03895132)">
    <path
       d="M 31.59,11.19 27,7.83 V 5 A 1,1 0 0 0 26,4 H 21.78 L 16.59,0.19 a 1,1 0 0 0 -1.18,0 L 10.22,4 H 6 A 1,1 0 0 0 5,5 V 7.83 L 0.41,11.19 A 1,1 0 0 0 0,12 v 17 a 3,3 0 0 0 3,3 h 26 a 3,3 0 0 0 3,-3 V 12 A 1,1 0 0 0 31.59,11.19 Z M 27,10.31 29.2,11.92 27,13.23 Z M 16,2.24 18.4,4 H 13.6 Z M 7,6 h 18 v 8.43 l -9,5.4 -9,-5.4 z m -2,4.31 v 2.93 L 2.8,11.92 Z M 2,28.59 V 13.77 l 9.26,5.56 z M 3.41,30 13,20.38 l 2.46,1.47 a 1,1 0 0 0 1,0 L 19,20.38 28.59,30 Z M 30,28.59 20.74,19.33 30,13.77 Z"
       id="path1"
       style="fill:#000000" />
    <rect
       x="10"
       y="9"
       width="12"
       height="2"
       id="rect1"
       style="fill:#000000" />
    <rect
       x="12"
       y="13"
       width="8"
       height="2"
       id="rect2"
       style="fill:#000000" />
  </g>
  <metadata
     id="metadata2">
    <rdf:RDF>
      <cc:Work
         rdf:about="">
        <dc:title>27-Email-Message</dc:title>
      </cc:Work>
    </rdf:RDF>
  </metadata>
</svg>
