<?xml version="1.0" encoding="UTF-8" standalone="no"?>
<svg
   width="512"
   height="512"
   viewBox="0 0 512 512"
   version="1.1"
   id="svg1"
   sodipodi:docname="github.svg"
   inkscape:version="1.4.2 (ebf0e940d0, 2025-05-08)"
   xmlns:inkscape="http://www.inkscape.org/namespaces/inkscape"
   xmlns:sodipodi="http://sodipodi.sourceforge.net/DTD/sodipodi-0.dtd"
   xmlns="http://www.w3.org/2000/svg"
   xmlns:svg="http://www.w3.org/2000/svg">
  <defs
     id="defs1" />
  <sodipodi:namedview
     id="namedview1"
     pagecolor="#ffffff"
     bordercolor="#000000"
     borderopacity="0.25"
     inkscape:showpageshadow="2"
     inkscape:pageopacity="0.0"
     inkscape:pagecheckerboard="0"
     inkscape:deskcolor="#d1d1d1"
     inkscape:zoom="1.039014"
     inkscape:cx="-18.286567"
     inkscape:cy="269.00503"
     inkscape:window-width="2542"
     inkscape:window-height="1382"
     inkscape:window-x="0"
     inkscape:window-y="0"
     inkscape:window-maximized="1"
     inkscape:current-layer="svg1" />
  <path
     fill-rule="evenodd"
     clip-rule="evenodd"
     d="M 256.21183,4.266 C 114.53331,4.266 0,119.6436 0,262.38143 c 0,114.09796 73.385436,210.6795 175.19049,244.86273 12.72825,2.56978 17.39056,-5.55385 17.39056,-12.38736 0,-5.9839 -0.41956,-26.49489 -0.41956,-47.86597 -71.27192,15.38718 -86.11369,-30.7691 -86.11369,-30.7691 -11.453852,-29.91427 -28.424857,-37.60261 -28.424857,-37.60261 -23.327265,-15.81198 1.699198,-15.81198 1.699198,-15.81198 25.876059,1.70969 39.453919,26.49489 39.453919,26.49489 22.90246,39.31229 59.80758,28.20458 74.65459,21.36583 2.11875,-16.66681 8.9103,-28.20457 16.1214,-34.61327 C 152.70758,370.07068 92.899994,347.85 92.899994,248.70394 c 0,-28.20458 10.174216,-51.2801 26.295616,-69.22656 -2.54355,-6.40871 -11.45385,-32.90884 2.5488,-68.37696 0,0 21.63331,-6.83875 70.41184,26.49489 a 246.3313,246.33117 0 0 1 64.05558,-8.54843 c 21.63331,0 43.68617,2.99456 64.05033,8.54843 48.78377,-33.33364 70.41709,-26.49489 70.41709,-26.49489 14.00265,35.46812 5.0871,61.96825 2.54355,68.37696 16.5462,17.94646 26.30086,41.02198 26.30086,69.22656 0,99.14606 -59.80758,120.9367 -117.07686,127.35065 9.3351,8.11839 17.39056,23.50032 17.39056,47.86073 0,34.61328 -0.41955,62.39305 -0.41955,70.93624 0,6.83875 4.66755,14.96238 17.39056,12.39784 C 438.61342,473.05568 511.99886,376.47939 511.99886,262.38143 512.41841,119.6436 397.46555,4.266 256.21183,4.266 Z"
     fill="#000000"
     id="path1"
     style="stroke-width:5.24444" />
</svg>
