<?xml version="1.0" encoding="UTF-8" standalone="no"?>
<svg
   id="Layer_1"
   data-name="Layer 1"
   viewBox="0 0 512 512"
   version="1.1"
   sodipodi:docname="instagram.svg"
   width="512"
   height="512"
   inkscape:version="1.4.2 (ebf0e940d0, 2025-05-08)"
   xmlns:inkscape="http://www.inkscape.org/namespaces/inkscape"
   xmlns:sodipodi="http://sodipodi.sourceforge.net/DTD/sodipodi-0.dtd"
   xmlns="http://www.w3.org/2000/svg"
   xmlns:svg="http://www.w3.org/2000/svg">
  <defs
     id="defs1" />
  <sodipodi:namedview
     id="namedview1"
     pagecolor="#ffffff"
     bordercolor="#000000"
     borderopacity="0.25"
     inkscape:showpageshadow="2"
     inkscape:pageopacity="0.0"
     inkscape:pagecheckerboard="0"
     inkscape:deskcolor="#d1d1d1"
     inkscape:zoom="0.576"
     inkscape:cx="500"
     inkscape:cy="499.13194"
     inkscape:window-width="2542"
     inkscape:window-height="1382"
     inkscape:window-x="0"
     inkscape:window-y="0"
     inkscape:window-maximized="1"
     inkscape:current-layer="Layer_1" />
  <path
     d="M 149.97616,1.7935404 C 122.73749,3.0786734 104.13634,7.4255974 87.875054,13.815422 71.045443,20.374208 56.780979,29.175577 42.588195,43.419562 28.395412,57.663546 19.655483,71.93825 13.142777,88.793461 6.8399936,105.09059 2.5698704,123.70709 1.3666582,150.96113 c -1.20321219,27.25404 -1.46945488,36.01444 -1.33633354,105.53451 0.13312135,69.52006 0.44032446,78.23439 1.76129784,105.54475 1.3004931,27.23355 5.632057,45.82958 12.0218815,62.09598 6.569027,16.82961 15.360156,31.08896 29.60926,45.28686 14.249104,14.19791 28.513568,22.91735 45.409739,29.4403 16.281767,6.29254 34.903397,10.58315 62.152307,11.77612 27.24892,1.19297 36.01957,1.46945 105.51915,1.33633 69.49958,-0.13312 78.24975,-0.44032 105.55499,-1.73569 27.30523,-1.29538 45.80398,-5.65766 62.07551,-12.01677 16.82961,-6.58438 31.09919,-15.36015 45.28685,-29.61438 14.18767,-14.25422 22.92248,-28.53916 29.43006,-45.40462 6.30791,-16.28176 10.59339,-34.90339 11.77612,-62.13182 1.19297,-27.32572 1.47458,-36.05029 1.34146,-105.56011 -0.13313,-69.50983 -0.44545,-78.22415 -1.74082,-105.52427 C 508.93275,122.6882 504.59607,104.1485 498.21137,87.871851 491.6321,71.042241 482.85121,56.793137 468.60723,42.584993 454.36324,28.376849 440.06806,19.647161 423.20773,13.154935 406.91572,6.8521516 388.30433,2.5564281 361.05542,1.3788162 333.8065,0.20120427 325.03585,-0.10087878 255.51067,0.03224256 185.98549,0.16536391 177.2814,0.46232692 149.97616,1.7935404 m 2.99011,462.7912396 c -24.96025,-1.08545 -38.51303,-5.23269 -47.5448,-8.70408 C 93.46103,451.27265 84.941264,445.70203 75.940213,436.78802 66.939162,427.87401 61.409506,419.32353 56.740019,407.38868 53.232783,398.35691 49.00874,384.8195 47.841368,359.85924 46.571596,332.88169 46.305353,324.78177 46.156871,256.4342 c -0.148481,-68.34757 0.112642,-76.43726 1.295374,-103.42505 1.06497,-24.93977 5.237813,-38.50791 8.704088,-47.53456 4.608046,-11.975802 10.158182,-20.480208 19.092673,-29.476139 8.93449,-8.995931 17.459377,-14.535827 29.404454,-19.205314 9.02153,-3.522596 22.55895,-7.710798 47.50896,-8.89865 26.99804,-1.280013 35.08772,-1.536016 103.42505,-1.684497 68.33733,-0.148482 76.44749,0.107521 103.45577,1.295373 24.93977,1.085451 38.51303,5.217333 47.52944,8.704088 11.96556,4.608047 20.48021,10.142823 29.47614,19.092673 8.99593,8.949851 14.54094,17.444017 19.21043,29.414696 3.52772,8.99593 7.71592,22.52823 8.89353,47.4936 1.28513,26.99804 1.57698,35.09284 1.69986,103.42505 0.12288,68.33221 -0.11776,76.44749 -1.30049,103.42505 -1.09058,24.96025 -5.22758,38.51815 -8.70409,47.56016 -4.60805,11.95532 -10.16331,20.4802 -19.10292,29.47102 -8.93961,8.99081 -17.45425,14.5307 -29.40445,19.20019 -9.01129,3.51748 -22.56407,7.71592 -47.4936,8.90377 -26.99804,1.26977 -35.08772,1.53602 -103.45065,1.6845 -68.36293,0.14848 -76.42701,-0.128 -103.42505,-1.29538 M 361.6647,119.18097 A 30.720311,30.720311 0 1 0 392.32357,88.409457 30.720311,30.720311 0 0 0 361.6647,119.18097 M 124.5551,256.26012 c 0.14337,72.60233 59.10588,131.3242 131.69286,131.18596 72.58697,-0.13824 131.34981,-59.09563 131.21157,-131.69797 C 387.32128,183.14578 328.34341,124.40854 255.74619,124.5519 183.14898,124.69526 124.41686,183.66802 124.5551,256.26012 m 46.11119,-0.0922 a 85.335904,85.335904 0 1 1 85.50487,85.16695 85.325663,85.325663 0 0 1 -85.50487,-85.16695"
     id="path1"
     style="stroke-width:0.512005" />
</svg>
