<?xml version="1.0" encoding="UTF-8" standalone="no"?>
<!-- Created with Inkscape (http://www.inkscape.org/) -->

<svg
   width="256.0px"
   height="256.0px"
   viewBox="0 0 256.0 256.0"
   version="1.1"
   id="SVGRoot"
   sodipodi:docname="favicon.svg"
   inkscape:version="1.1.2 (0a00cf5339, 2022-02-04)"
   xmlns:inkscape="http://www.inkscape.org/namespaces/inkscape"
   xmlns:sodipodi="http://sodipodi.sourceforge.net/DTD/sodipodi-0.dtd"
   xmlns="http://www.w3.org/2000/svg"
   xmlns:svg="http://www.w3.org/2000/svg">
  <sodipodi:namedview
     id="namedview14"
     pagecolor="#505050"
     bordercolor="#eeeeee"
     borderopacity="1"
     inkscape:pageshadow="0"
     inkscape:pageopacity="0"
     inkscape:pagecheckerboard="0"
     inkscape:document-units="px"
     showgrid="true"
     inkscape:zoom="0.35355339"
     inkscape:cx="620.83975"
     inkscape:cy="22.627417"
     inkscape:window-width="1920"
     inkscape:window-height="1012"
     inkscape:window-x="1280"
     inkscape:window-y="44"
     inkscape:window-maximized="1"
     inkscape:current-layer="layer1"
     inkscape:snap-bbox="false"
     inkscape:bbox-nodes="false"
     inkscape:snap-grids="false"
     inkscape:snap-midpoints="true">
    <inkscape:grid
       type="xygrid"
       id="grid20" />
  </sodipodi:namedview>
  <defs
     id="defs9" />
  <g
     inkscape:label="Layer 1"
     inkscape:groupmode="layer"
     id="layer1">
    <text
       xml:space="preserve"
       style="font-style:normal;font-weight:normal;font-size:40px;line-height:1.25;font-family:sans-serif;fill:#000000;fill-opacity:1;stroke:none"
       x="5"
       y="5"
       id="text5877"><tspan
         sodipodi:role="line"
         id="tspan5875"
         x="5"
         y="5" /></text>
    <path
       sodipodi:type="star"
       id="path69724"
       inkscape:flatsided="true"
       sodipodi:sides="6"
       sodipodi:cx="128"
       sodipodi:cy="-69.53891"
       sodipodi:r1="120.00601"
       sodipodi:r2="103.92825"
       sodipodi:arg1="2.6167969"
       sodipodi:arg2="3.1403957"
       inkscape:rounded="0"
       inkscape:randomized="0"
       d="m 24.143642,-9.4115471 -0.143645,-120.0059229 103.856363,-60.12737 104,59.87857 L 232,-9.6603467 128.14364,50.467016 Z"
       transform="matrix(0.92852399,0,0,0.91895733,9.1489289,191.90329)"
       style="fill:#252525;fill-opacity:1;stroke:#1f1f1f;stroke-width:16.0004;stroke-miterlimit:4;stroke-dasharray:none;stroke-opacity:1" />
    <g
       id="g71671"
       transform="matrix(0.78691358,0,0,0.78691358,281.52162,9.2657473)">
      <path
         style="fill:#3090ff;fill-opacity:1;stroke:#3090ff;stroke-width:0.2;stroke-miterlimit:4;stroke-dasharray:none;stroke-opacity:1"
         id="path71499"
         d="m -296.65637,119.6892 c 0.80499,0.0241 1.61045,0.0358 2.41498,0.0723 8.32938,0.37764 0.22911,0.12861 10.68498,0.51602 9.72486,0.36032 19.45697,0.47802 29.18626,0.65684 8.38519,0.14298 11.79171,0.19056 19.96489,0.36812 2.4846,0.054 4.97217,0.0386 7.45346,0.17785 1.62084,0.091 3.26037,0.15141 4.84318,0.51218 0.64662,0.14739 1.6226,0.33094 1.7283,0.98567 0.11229,0.6955 -0.86677,1.11087 -1.30016,1.6663 -1.36668,1.26474 -2.70517,2.56065 -4.10005,3.79422 -5.43903,4.81001 -10.51296,8.9587 -16.11246,13.65272 -8.67598,7.273 -17.32434,14.57888 -25.98082,21.87505 -8.10705,6.91853 -4.27411,3.64834 -11.49858,9.81088 0,0 5.18878,-2.10566 5.18878,-2.10566 v 0 c 6.84583,-6.01654 3.19998,-2.82183 10.94139,-9.57975 8.52794,-7.30206 17.0635,-14.59152 25.70629,-21.75795 1.00371,-0.83225 15.39363,-12.63877 17.03848,-14.05956 1.57321,-1.35892 3.05261,-2.82281 4.57891,-4.23422 0.27875,-0.85554 1.17905,-1.73467 0.83626,-2.56663 -0.30823,-0.74807 -1.46002,-0.76174 -2.25933,-0.88715 -1.7223,-0.27023 -3.47927,-0.2494 -5.22225,-0.28671 -2.56963,-0.055 -5.14045,0.0176 -7.71066,0.01 -9.51303,-0.0284 -10.30166,-0.0738 -20.14982,-0.22898 -13.64185,-0.34272 -27.33031,-0.59673 -40.88868,-2.27358 0,0 -5.34335,3.88217 -5.34335,3.88217 z" />
      <path
         style="fill:#3090ff;fill-opacity:1;stroke:#3090ff;stroke-width:0.2;stroke-miterlimit:4;stroke-dasharray:none;stroke-opacity:1"
         id="path71501"
         d="m -184.3296,129.36148 c -0.69841,0.36288 -1.41386,0.69467 -2.09521,1.08863 -7.44841,4.30669 -14.7826,8.8364 -21.95032,13.59828 -1.25545,0.83407 -15.0861,10.33754 -16.26586,11.14759 -6.72944,4.50982 -13.26724,9.3175 -20.08938,13.69024 -1.34998,0.86529 -2.53974,2.20925 -4.11952,2.48396 -1.29934,0.22594 2.25002,-1.41143 3.20181,-2.32438 0.2562,-0.24575 0.19325,-0.68322 0.28988,-1.02484 0.58564,-1.20813 1.11647,-2.44441 1.75692,-3.6244 2.25944,-4.16289 5.0219,-8.50366 7.55128,-12.47321 1.50559,-2.36282 6.42564,-9.95133 8.15741,-12.46032 1.06945,-1.54941 2.20945,-3.04892 3.31417,-4.57337 1.06793,-0.93429 1.79392,-2.64286 3.20381,-2.80286 0.94867,-0.10766 -1.86219,1.85337 -1.24328,2.58036 1.27118,1.49318 3.72258,1.31261 5.40918,2.31304 2.48606,1.47462 4.783,3.25773 7.03577,5.06881 5.3223,4.27878 11.49213,10.35144 16.38557,15.00081 9.16079,8.90218 18.17593,17.97344 27.82189,26.35817 3.63391,3.15876 4.24254,3.58755 7.71433,6.34374 0,0 5.06165,-3.20239 5.06165,-3.20239 v 0 c -3.59226,-2.5312 -4.44687,-3.0641 -8.15313,-6.02348 -10.03473,-8.01256 -19.26295,-16.97468 -28.43468,-25.9427 -4.51165,-4.43952 -11.12001,-11.08493 -15.9684,-15.32903 -0.74218,-0.64968 -9.37155,-8.27951 -12.01488,-8.18285 -6.82181,0.24946 -8.35569,2.49966 -12.11176,6.11789 -1.02904,1.49875 -2.08287,2.98079 -3.08713,4.49627 -2.71276,4.09371 -5.31362,8.26049 -7.97554,12.38744 -1.59728,2.47636 -6.5075,9.97448 -8.11802,12.79416 -0.76207,1.33424 -1.37292,2.74933 -2.05939,4.124 0.14882,0.65164 -0.20553,2.10228 0.44645,1.95494 2.6761,-0.60474 4.93785,-2.39798 7.34438,-3.71549 2.25852,-1.23649 7.3665,-4.81499 9.103,-6.00979 1.51259,-1.04074 13.22644,-9.15382 14.2419,-9.85698 3.96704,-2.72145 12.4684,-8.58484 16.48499,-11.21441 19.72411,-12.9129 -3.54008,2.56337 13.52447,-8.46131 0.44508,-0.28755 -1.88094,0.97696 -1.40923,0.73558 0.61851,-0.31649 1.23309,-0.64062 1.84963,-0.96093 0,0 5.19724,-4.10117 5.19724,-4.10117 z" />
      <path
         style="fill:#3090ff;fill-opacity:1;stroke:#3090ff;stroke-width:0.2;stroke-miterlimit:4;stroke-dasharray:none;stroke-opacity:1"
         id="path71503"
         d="m -113.86608,124.78139 c -12.73676,4.86395 -25.43305,9.83871 -38.14791,14.76172 -6.41656,2.70702 -14.76949,5.09681 -20.09122,9.70619 -0.54508,0.47212 -0.39558,1.62514 0.0863,2.16165 0.87967,0.97947 2.25271,1.40809 3.49946,1.83091 2.01301,0.68267 4.13817,0.97396 6.20726,1.46094 2.70201,0.49153 5.40101,0.9999 8.10603,1.47458 8.77307,1.53953 9.85564,1.59168 18.73303,3.27275 8.85901,1.67759 17.64606,3.61673 26.41366,5.71212 1.51286,0.40257 7.98225,1.61962 9.677591,3.51114 0.489144,0.54575 0.465911,1.53429 0.146218,2.19376 -0.517798,1.06812 -1.517479,1.85269 -2.458539,2.57615 -4.14328,3.18527 -4.62712,3.14403 -8.64683,4.76288 -11.4945,5.03306 -5.78227,2.66751 -17.12859,7.11617 0,0 -4.06281,3.19052 -4.06281,3.19052 v 0 c 11.38658,-4.47171 5.67515,-2.1228 17.12984,-7.05754 2.71216,-1.42682 14.36835,-7.04397 18.306475,-10.38335 1.296249,-1.09918 3.895204,-3.71014 1.740868,-5.71356 -1.042287,-0.96927 -2.54371,-1.30861 -3.901836,-1.73445 -2.095597,-0.65708 -4.276947,-1.00038 -6.415427,-1.50057 -8.86869,-1.94385 -17.74709,-3.84202 -26.66144,-5.5677 -6.1579,-1.19208 -12.3471,-2.21929 -18.50212,-3.42615 -2.61123,-0.51201 -5.20847,-1.09299 -7.8127,-1.63948 -0.91968,-0.25598 -7.15137,-1.6094 -8.66424,-3.02927 -0.34569,-0.32444 0.32975,-1.28827 -0.12664,-1.41665 -0.6692,-0.18824 -2.54441,1.12172 -1.90683,0.84465 8.35278,-3.6299 2.62242,-1.24011 12.21216,-5.11163 12.28749,-4.8144 24.56097,-9.69416 37.07288,-13.90112 0,0 5.1954,-4.09466 5.1954,-4.09466 z" />
      <path
         style="fill:#3090ff;fill-opacity:1;stroke:#3090ff;stroke-width:0.2;stroke-miterlimit:4;stroke-dasharray:none;stroke-opacity:1"
         id="path71505"
         d="m -267.30169,110.55062 c 12.58415,0.0389 25.16581,0.20486 37.74752,0.44881 0,0 3.8491,-2.78542 3.8491,-2.78542 v 0 c -12.1124,-0.22348 -24.24964,-0.34844 -36.32245,-1.44823 0,0 -5.27417,3.78484 -5.27417,3.78484 z" />
    </g>
    <text
       xml:space="preserve"
       style="font-size:184.279px;line-height:1.25;font-family:'Source Code Pro';-inkscape-font-specification:'Source Code Pro';stroke-width:1.15174"
       x="234.25664"
       y="190.93155"
       id="text82562"
       transform="scale(1.0273564,0.97337205)"><tspan
         sodipodi:role="line"
         id="tspan82560"
         x="234.25664"
         y="190.93155"
         style="stroke-width:1.15174">somecollagist</tspan></text>
  </g>
</svg>
